<?xml version="1.0" encoding="utf-8"?>
<!-- Generator: Adobe Illustrator 25.4.1, SVG Export Plug-In . SVG Version: 6.00 Build 0)  -->
<svg version="1.1" id="Layer_1" xmlns="http://www.w3.org/2000/svg" xmlns:xlink="http://www.w3.org/1999/xlink" x="0px" y="0px"
	 viewBox="0 0 213 212" style="enable-background:new 0 0 213 212;" xml:space="preserve">
<style type="text/css">
	.st0{fill:#FFFFFF;}
</style>
<g>
	<path class="st0" d="M120.4,57.2c1.9,0.9,4.1,2.2,5.9,3.4c0-0.6,0-0.9,0-1.3c0-7.5-2.5-14.1-5.3-20.3c-0.3-0.3-0.6-0.3-0.9-0.3
		c-0.3,0-0.6,0.3-0.6,0.9c0.6,3.1,0.9,6.6,1.3,10C121.1,52.1,120.7,54.6,120.4,57.2z"/>
	<path class="st0" d="M180.5,100.3c0.3-0.6,2.8-7.2,8.4-11.3l-2.2,5c0,0,0.3,0,0.3-0.3c1.9-1.6,3.8-2.8,5.6-4.4
		c1.9-1.6,4.1-3.1,5.6-5.3c1.9-1.9,3.4-4.4,4.4-6.9c0.9-2.5,1.3-5,0.9-7.2c0-0.3-0.3-0.6-0.6-0.6s-0.6,0.3-0.6,0.6
		c-0.3,2.2-0.9,4.4-2.2,6.3c-0.9,1.9-2.5,3.4-4.4,4.7c-3.4,2.8-7.5,4.4-11.9,6.9c-2.2,1.3-4.4,2.5-6.3,4.1c0.9,2.2,1.9,4.4,2.5,6.9
		C180.5,99.4,180.5,99.7,180.5,100.3z"/>
	<path class="st0" d="M13.1,56.8c4.4,0,8.4,1.3,11.6,3.4L24,57.8c6.9,4.7,12.2,15.6,12.5,16.3c3.4,5.3,6.6,11.3,11,16.9
		c2.8,3.8,6.3,7.5,11,10.3c0.3,0.3,0.6,0.3,0.9,0.6l0.9,0.6l1.9,0.9c1.3,0.6,2.8,0.9,4.1,1.6c1.3,0.3,2.5,0.6,3.8,0.9l-0.9-2.2
		c-0.3-0.6-0.6-1.6-0.9-2.5c-0.3-0.9-0.6-1.6-0.6-2.5l-0.3-2.5c0-0.9-0.3-1.6-0.3-2.5c0-1.3-0.3-2.8-0.3-4.1
		c-5.3,0-12.2-1.6-18.2-8.4h7.2c-5.9-4.1-11.3-10.6-17.8-16.6c-3.4-3.1-7.2-5.9-11.6-7.5c-0.6-0.3-0.9-0.3-1.6-0.6l-1.6-0.3
		c-1.3-0.3-2.2-0.3-3.4-0.6c-0.6,0-1.3,0-1.6,0h-1.6c-1.3,0-2.2,0.3-3.4,0.6c-0.3,0-0.6,0.3-0.3,0.6C12.9,56.8,13,56.8,13.1,56.8z"
		/>
	<path class="st0" d="M43.4,101.3c0-0.3,0-0.3-0.3-0.6c-0.6-1.3-0.9-2.5-1.9-3.8c-0.6-1.3-1.3-2.5-2.2-3.4c-1.6-2.2-3.4-3.8-5.3-5.3
		c-1.9-1.3-3.8-2.5-5.9-3.1c-1.3-0.6-1.6,0.3-0.3,1.6c5.3,3.8,7.8,9.4,7.8,9.4L35,91.6c1.9,1.9,2.8,5.3,3.4,9.1
		C40.3,101,41.9,101.3,43.4,101.3z"/>
</g>
<path class="st0" d="M208.7,90.3c-3.1,1.3-6.3,3.4-9.4,5.9c-3.1,2.5-5.9,5.6-8.4,9.1c-3.8,5-6.9,10.3-10,15.3l5.9-3.4
	c-6.3,17.8-24.7,23.8-25.3,24.1c-1.3,0.3-2.5,0.6-3.8,0.9c-0.6,0-0.9,0-1.6,0.3v-0.3c-0.3-0.6-1.6-1.3-1.9-1.9
	c0-0.3-0.3-0.6-0.3-0.6c3.1-2.5,6.3-5,9.1-8.1c1.9-1.9,3.8-4.1,5.6-6.6c1.9-2.5,3.4-5,4.7-7.8c1.3-2.8,2.2-5.9,2.5-9.4
	c0.3-3.1,0-6.6-0.6-9.4c-1.6-5.9-4.4-10.6-6.9-15c-2.2-3.4-4.4-6.9-6.3-10.3c-0.3-0.3-8.1-13.8-5-19.7l1.9,4.1
	c0.9-3.8,3.1-7.5,6.3-11c3.1-3.8,6.9-6.9,11-9.7c0.3-0.3,0.3-0.6,0.3-0.9c-0.3-0.3-0.6-0.6-0.9-0.3c-4.4,2.5-8.8,5-12.5,8.4
	c-1.9,1.6-3.8,3.4-5.3,5.6c-1.6,2.2-3.1,4.7-3.8,7.2c-0.6,1.3-0.6,2.8-0.9,4.1c0,1.6-0.3,2.8,0,4.4c0,2.8,0.6,5.6,1.6,8.1
	c1.6,5.3,3.8,9.7,5.9,14.4c1.6,3.8,3.1,7.5,3.8,10.6c4.1-3.1,6.3-6.3,6.3-6.3c3.1,5.3-5.9,16.3-10.3,21.3l-0.3,0.3
	c-0.6,0.6-0.9,1.3-1.6,1.9C158,116,158,116,158,116c-1.3,1.3-2.5,2.2-4.1,3.4c-2.5,1.9-5,3.4-7.8,5c-0.6-0.3-1.3-0.6-1.6-0.9
	c-0.6-0.6-1.3-0.9-1.6-1.6c-0.6-0.6,0-2.2-0.6-2.8c0.3-1.6,0.6-3.1,0.9-4.7l0.6-3.4l0.3-1.6l0.3-1.6l0.3-3.4c0-1.3,0-2.2,0.3-3.4
	c0-0.6,0-1.3,0-1.9v-1.9c0-1.3,0-2.2-0.3-3.4c-0.3-4.7-1.6-9.7-4.1-14.1c-2.5-4.4-5.6-8.1-9.4-11c-5.6-4.4-11.6-7.2-16.9-10
	c-1.6-0.6-15-6.9-15.3-11.9l2.5,1.3c-1.9-3.1-3.1-6.6-3.1-10.3c0-0.3-0.3-0.6-0.6-0.6c-0.3,0-0.6,0.3-0.6,0.6
	c-0.6,4.1,0,8.4,1.6,12.5c0.9,2.2,2.2,3.8,3.4,5.6c1.3,1.6,2.8,3.1,4.4,4.7c3.1,2.8,6.6,5.3,9.7,7.8c2.8,2.2,5.6,4.7,7.8,6.9
	l-0.9-8.4c10.3,9.1,7.5,27.2,7.5,27.2c0,0.9-0.3,1.6-0.3,2.5l-1.9,1.6c0,0.3-0.3,0.9-0.3,1.3c-0.3,0.9-0.3,1.6-0.6,2.5l-0.9,2.5
	l-0.3,1.3l-0.6,1.3l-0.9,2.5c-0.3,0.9-0.9,1.9-1.3,3.1c-0.6-0.3-1.3-0.3-1.9-0.6c-0.6,0-0.9-3.1-1.9-3.1c-0.3,0-0.6,0.3-0.9,0.6
	c-0.9-1.9-1.6-3.8-2.2-5.3c0,0-9.7-15.6-5-22.2l4.4,7.8c0-0.3,0-0.6,0.3-0.6c0.9-2.5,2.2-5.3,3.8-8.4c-0.6-0.9-0.9-1.9-1.6-2.8
	c-1.6-2.2-3.4-4.7-5.6-5.9c-0.6,0.9-1.3,1.6-2.2,2.5c-2.2,2.5-4.4,5.3-6.6,8.8c-2.2,3.4-3.8,7.5-4.7,11.6c-0.9,3.8-0.9,7.5-0.9,11.3
	c-2.5-1.6-4.4-3.4-5.9-5.3l-0.3-0.6c0-0.3-0.3-0.3-0.3-0.6l-0.6-1.3c-0.3-0.3-0.3-0.9-0.6-1.3L90.1,96c0,0-11-13.5-10-22.2l7.5,6.9
	c0-1.6,0-3.1,0-4.4c0-5,0-10.6-0.3-16C86.6,54.6,85.7,49,83.2,44c-2.2-5.3-5.6-9.7-9.7-13.5c-4.1-3.8-8.4-6.6-12.8-9.4
	c-0.3-0.3-0.9,0-1.3,0.3c-0.3,0.3-0.3,0.9,0,1.3c3.8,3.4,7.5,6.9,10.3,11c1.6,2.2,3.1,4.7,4.1,7.2l2.2-2.5l0.9,14.7c0,2.5,0,5,0,7.5
	c-0.3,4.7-1.3,9.7-2.2,14.7c-0.9,5-1.9,10.6-1.9,16.6c0,1.6,0,3.1,0.3,4.7c0,0.9,0.3,1.6,0.3,2.5l0.3,2.5c0.3,0.9,0.3,1.6,0.6,2.5
	c0.3,0.9,0.3,1.6,0.9,2.5l0.9,2.2c0.3,0.3,0.3,0.6,0.6,1.3l0.6,0.9c2.2,3.8,4.7,7.2,7.8,10.3c-0.6,0-1.6-0.3-1.9,0
	c-0.6,0.6,0.3,2.5,0,3.1c-0.6,0.6-2.5-0.3-2.8,0.3l-0.3,0.3c-0.9-1.3-1.9-2.2-2.8-3.4l-2.2-2.5c-0.6-0.6-1.3-1.3-1.9-1.6
	c-2.5-2.2-5-3.8-7.5-5c-1.3-0.6-2.5-1.3-3.4-1.6c-1.3-0.3-2.2-0.9-3.4-1.3c-4.4-1.3-8.4-2.2-12.5-2.5c-7.8-1.3-15.3-1.9-22.5-5.3
	c-3.8-1.6-7.2-4.1-10.6-7.5C10,91,7.1,86.9,4.6,82.2c-0.3-0.3-0.6-0.6-0.9-0.6s-0.3,0.3-0.3,0.9c2.2,5,4.7,10,8.1,14.4
	c3.4,4.4,7.5,8.1,11.6,11c4.1,2.8,8.4,5,12.5,6.6c4.1,1.6,8.1,3.1,12.2,4.4c1.3,0.6,2.5,0.9,3.8,1.6l-7.2-6.9
	c17.5,5.3,24.7,18.5,25,19.1c1.3,1.9,2.2,3.8,2.8,6.3c-0.6,0.3-0.9,0.6-0.9,0.9c-0.3,0.6-1.6,1.3-1.6,1.9c-0.3,0.6,1.6,1.9,1.6,2.8
	c0,0.3-0.3,0.6-0.6,0.9c-0.3,0-0.9,0-1.3-0.3l-1.3-0.3c-0.6-0.3-1.6-0.3-2.2-0.6c0,0-14.4-2.8-20-17.2l4.7,2.8
	c-0.6-1.3-1.3-2.8-1.9-4.1c-3.1-1.6-6.3-3.8-9.4-5.3c0.9,4.7,2.2,9.4,3.8,14.1c1.9,4.7,4.4,9.7,7.8,14.1c3.4,4.4,7.5,7.5,11.6,10
	c0.9,0.6,2.2,1.3,3.1,1.6l1.6,0.9c0.6,0.3,0.9,0.3,1.6,0.6c0.9,0.3,1.9,0.6,2.5,0.9c0,0.6,0,1.3,0,1.9c0.3,0.6,0.3,1.6,0.6,2.2
	c0.3,0.6,0.6,1.3,0.9,1.9c0.3,0.6,0.9,1.3,1.3,1.9c0.3,0.6-0.3,1.9,0,2.5c0.3,0.6,0.6,1.6,0.9,2.2c0.3,0.6-0.3,1.9,0,2.5
	c0.3,0.6,3.1-0.3,3.4,0.3c0.3,0.6,0,1.9,0.6,2.5c0.6,0.6,0.9,0.9,1.6,1.6c0.6,0.6,0.6,1.6,1.3,1.9c0.6,0.6,0.3,1.9,0.9,2.5
	c0.6,0.6,3.1-1.3,3.8-0.6c0.6,0.6,1.3,0.9,1.9,1.3c0.6,0.3,1.3,0.9,1.9,1.3c0.6,0.3,0.6,1.6,1.3,1.9c0.6,0.3,1.6,0,2.2,0.3
	c0.6,0.3,0.9,1.6,1.6,1.9c0.6,0.3,1.9-0.6,2.5-0.3c0.6,0.3,0.6,2.8,1.3,3.1c0.6,0.3,1.6,0,2.2,0.3c0.6,0.3,1.6,0,2.2,0.3
	c0.6,0,1.3,0.9,2.2,0.9c0.6,0,1.6,0.3,2.2,0.3c0.6,0,1.6-1.3,2.5-1.3c0.6,0,1.6,1.9,2.2,1.9c0.6,0,1.6-2.8,2.2-2.8
	c0.6,0,1.6,1.9,2.5,1.9c0.6,0,1.3-2.2,1.9-2.2c0.6,0,1.6-0.3,2.2-0.3c0.6,0,1.6,0,2.2-0.3c0.6-0.3,1.3-0.3,2.2-0.6
	c0.6-0.3,1.3-0.6,1.9-0.9s1.9,0.9,2.5,0.6s1.3-0.9,1.9-1.6c0.6-0.3,0.9-1.6,1.6-1.9c0.6-0.3,1.3-0.6,1.9-1.3c0.6-0.3,2.2,0.3,2.8,0
	c0.6-0.3,1.9,0,2.5-0.6c0.6-0.6-0.3-2.5,0.3-3.1c0.6-0.6,2.5,0.3,3.1,0c0.6-0.6,0-2.2,0.6-2.5c0.6-0.6,1.9-0.3,2.2-0.9
	c0.6-0.6,0.3-1.6,0.9-2.2c0.3-0.6,2.2-0.3,2.5-0.9c0.3-0.6-0.3-1.9,0.3-2.5c0.3-0.6,0-1.6,0.3-2.5c0.3-0.6,1.6-0.9,1.9-1.6
	c0.3-0.6,1.3-1.3,1.6-1.9c0.3-0.6-1.3-2.2-1.3-2.8c0.3-0.6,0.9-1.3,0.9-1.9c0.3-0.6,0-1.6,0.3-2.2c0-0.6,0-0.9,0-1.6
	c1.3-0.3,2.5-0.9,3.8-1.3c3.8-1.6,7.8-4.1,11.3-6.9c3.4-3.1,6.9-6.9,9.4-10.6c2.5-4.1,4.4-7.8,6.3-11.6c3.4-7.8,5.9-15,9.7-21.9
	c1.9-3.4,3.8-6.6,6.3-9.4c2.5-2.8,5-5.3,8.1-7.5c0.3,0,0.3-0.3,0.3-0.6C209,90.3,209,90.3,208.7,90.3z M133.9,149.8
	c0.3,0,0.6,0.3,0.6,0.6c0,0.3-0.3,0.6-0.6,0.6c-0.3,0-0.6-0.3-0.6-0.6C133.3,150.1,133.6,149.8,133.9,149.8z M132.9,173.3
	c-5.6,1.3-21.9-4.4-21.9-4.4c-10-21,5-36,5-36s8.4,5,16,7.8c0.1,0.1,0.2,0.3,0.3,0.5c-0.6,2.5-1.5,5.9-2.2,9.6
	c-1.9,9.1-2.8,16.3-2.8,16.3s8.1-7.2,10-16.3v-0.3c0-0.1,0-0.1,0-0.2c-0.2,0.1-0.4,0.2-0.6,0.2c-0.9,0-1.9-0.9-1.9-1.9
	c0-1.3,0.9-1.9,1.9-1.9c0.4,0,0.6,0.2,0.9,0.4c0-1.8-0.3-3.2-0.3-4.1c-0.2-0.1-0.5-0.2-0.8-0.3c0.2-0.1,0.5-0.3,0.5-0.3
	c1.6,0.3,2.8,0.6,3.8,0.6c5.9-0.6,7.8-2.2,7.8-2.2C155.5,159.5,138.9,172,132.9,173.3z"/>
</svg>
