<?xml version="1.0" encoding="utf-8"?>
<!-- Generator: Adobe Illustrator 25.4.1, SVG Export Plug-In . SVG Version: 6.00 Build 0)  -->
<svg version="1.1" id="Layer_1" xmlns="http://www.w3.org/2000/svg" xmlns:xlink="http://www.w3.org/1999/xlink" x="0px" y="0px"
	 viewBox="0 0 14 15" style="enable-background:new 0 0 14 15;" xml:space="preserve">
<style type="text/css">
	.st0{fill:#FFFFFF;}
</style>
<g>
	<path class="st0" d="M7.9,4c0.1,0.1,0.3,0.1,0.4,0.2c0,0,0-0.1,0-0.1c0-0.5-0.2-0.9-0.4-1.4c0,0,0,0-0.1,0s0,0,0,0.1
		c0,0.2,0.1,0.4,0.1,0.7C8,3.7,8,3.9,7.9,4z"/>
	<path class="st0" d="M11.9,6.9c0,0,0.2-0.5,0.6-0.8l-0.1,0.3c0,0,0,0,0,0c0.1-0.1,0.3-0.2,0.4-0.3C12.9,6.1,13,6,13.1,5.8
		c0.1-0.1,0.2-0.3,0.3-0.5c0.1-0.2,0.1-0.3,0.1-0.5c0,0,0,0,0,0s0,0,0,0c0,0.1-0.1,0.3-0.1,0.4c-0.1,0.1-0.2,0.2-0.3,0.3
		c-0.2,0.2-0.5,0.3-0.8,0.5c-0.1,0.1-0.3,0.2-0.4,0.3c0.1,0.1,0.1,0.3,0.2,0.5C11.9,6.8,11.9,6.9,11.9,6.9z"/>
	<path class="st0" d="M0.8,4c0.3,0,0.6,0.1,0.8,0.2l0-0.2c0.5,0.3,0.8,1,0.8,1.1c0.2,0.4,0.4,0.8,0.7,1.1C3.3,6.5,3.5,6.8,3.8,7
		c0,0,0,0,0.1,0l0.1,0L4,7.1c0.1,0,0.2,0.1,0.3,0.1c0.1,0,0.2,0,0.3,0.1L4.5,7.1c0,0,0-0.1-0.1-0.2c0-0.1,0-0.1,0-0.2l0-0.2
		c0-0.1,0-0.1,0-0.2c0-0.1,0-0.2,0-0.3C4,6.2,3.5,6.1,3.1,5.6h0.5C3.2,5.4,2.9,4.9,2.4,4.5C2.2,4.3,1.9,4.1,1.6,4c0,0-0.1,0-0.1,0
		L1.4,4c-0.1,0-0.1,0-0.2,0c0,0-0.1,0-0.1,0H1C0.9,3.9,0.9,3.9,0.8,4C0.7,4,0.7,4,0.8,4C0.8,4,0.8,4,0.8,4z"/>
	<path class="st0" d="M2.8,7C2.8,6.9,2.8,6.9,2.8,7C2.7,6.8,2.7,6.8,2.6,6.7c0-0.1-0.1-0.2-0.1-0.2C2.4,6.3,2.3,6.2,2.1,6.1
		C2,6,1.9,5.9,1.7,5.9c-0.1,0-0.1,0,0,0.1c0.4,0.3,0.5,0.6,0.5,0.6l0-0.3c0.1,0.1,0.2,0.4,0.2,0.6C2.6,6.9,2.7,7,2.8,7z"/>
</g>
<path class="st0" d="M13.8,6.2c-0.2,0.1-0.4,0.2-0.6,0.4C13,6.8,12.8,7,12.6,7.2c-0.3,0.3-0.5,0.7-0.7,1L12.4,8
	c-0.4,1.2-1.6,1.6-1.7,1.6c-0.1,0-0.2,0-0.3,0.1c0,0-0.1,0-0.1,0v0c0,0-0.1-0.1-0.1-0.1c0,0,0,0,0,0c0.2-0.2,0.4-0.3,0.6-0.5
	c0.1-0.1,0.3-0.3,0.4-0.4c0.1-0.2,0.2-0.3,0.3-0.5c0.1-0.2,0.1-0.4,0.2-0.6c0-0.2,0-0.4,0-0.6c-0.1-0.4-0.3-0.7-0.5-1
	c-0.1-0.2-0.3-0.5-0.4-0.7c0,0-0.5-0.9-0.3-1.3L10.5,4c0.1-0.3,0.2-0.5,0.4-0.7c0.2-0.3,0.5-0.5,0.7-0.6c0,0,0,0,0-0.1
	c0,0,0,0-0.1,0c-0.3,0.2-0.6,0.3-0.8,0.6c-0.1,0.1-0.3,0.2-0.4,0.4c-0.1,0.1-0.2,0.3-0.3,0.5c0,0.1,0,0.2-0.1,0.3c0,0.1,0,0.2,0,0.3
	c0,0.2,0,0.4,0.1,0.5c0.1,0.4,0.3,0.6,0.4,1c0.1,0.3,0.2,0.5,0.3,0.7c0.3-0.2,0.4-0.4,0.4-0.4c0.2,0.4-0.4,1.1-0.7,1.4l0,0
	c0,0-0.1,0.1-0.1,0.1c0,0,0,0,0,0c-0.1,0.1-0.2,0.1-0.3,0.2C10,8.3,9.8,8.4,9.6,8.5c0,0-0.1,0-0.1-0.1c0,0-0.1-0.1-0.1-0.1
	c0,0,0-0.1,0-0.2c0-0.1,0-0.2,0.1-0.3l0-0.2l0-0.1l0-0.1l0-0.2c0-0.1,0-0.1,0-0.2c0,0,0-0.1,0-0.1V6.7c0-0.1,0-0.1,0-0.2
	c0-0.3-0.1-0.6-0.3-0.9C9.1,5.2,8.9,5,8.7,4.8C8.3,4.5,7.9,4.3,7.5,4.1c-0.1,0-1-0.5-1-0.8l0.2,0.1C6.6,3.2,6.5,3,6.5,2.7
	c0,0,0,0,0,0s0,0,0,0c0,0.3,0,0.6,0.1,0.8c0.1,0.1,0.1,0.3,0.2,0.4C6.8,4,6.9,4.1,7,4.2c0.2,0.2,0.4,0.4,0.6,0.5
	C7.8,4.9,8,5.1,8.2,5.2L8.1,4.7c0.7,0.6,0.5,1.8,0.5,1.8c0,0.1,0,0.1,0,0.2L8.5,6.8c0,0,0,0.1,0,0.1c0,0.1,0,0.1,0,0.2L8.3,7.2
	l0,0.1l0,0.1L8.2,7.5c0,0.1-0.1,0.1-0.1,0.2c0,0-0.1,0-0.1,0c0,0-0.1-0.2-0.1-0.2c0,0,0,0-0.1,0C7.8,7.4,7.7,7.3,7.7,7.1
	c0,0-0.6-1-0.3-1.5l0.3,0.5c0,0,0,0,0,0C7.7,6,7.8,5.8,7.9,5.6c0-0.1-0.1-0.1-0.1-0.2C7.7,5.2,7.6,5.1,7.4,5c0,0.1-0.1,0.1-0.1,0.2
	C7.1,5.3,7,5.5,6.8,5.8C6.7,6,6.6,6.3,6.5,6.5C6.5,6.8,6.5,7,6.5,7.3C6.3,7.2,6.2,7,6.1,6.9l0,0c0,0,0,0,0,0l0-0.1c0,0,0-0.1,0-0.1
	l0-0.1c0,0-0.7-0.9-0.7-1.5l0.5,0.5c0-0.1,0-0.2,0-0.3c0-0.3,0-0.7,0-1.1c0-0.4-0.1-0.8-0.3-1.1C5.3,2.8,5.1,2.5,4.8,2.2
	C4.5,2,4.2,1.8,3.9,1.6c0,0-0.1,0-0.1,0s0,0.1,0,0.1C4.1,2,4.4,2.2,4.5,2.5c0.1,0.1,0.2,0.3,0.3,0.5L5,2.8l0.1,1c0,0.2,0,0.3,0,0.5
	c0,0.3-0.1,0.6-0.1,1C4.8,5.6,4.8,5.9,4.8,6.3c0,0.1,0,0.2,0,0.3c0,0.1,0,0.1,0,0.2l0,0.2c0,0.1,0,0.1,0,0.2s0,0.1,0.1,0.2L5,7.5
	c0,0,0,0,0,0.1l0,0.1c0.1,0.3,0.3,0.5,0.5,0.7c0,0-0.1,0-0.1,0c0,0,0,0.2,0,0.2c0,0-0.2,0-0.2,0l0,0C5.2,8.5,5.1,8.4,5.1,8.3
	L4.9,8.2c0,0-0.1-0.1-0.1-0.1C4.6,7.9,4.5,7.8,4.3,7.7c-0.1,0-0.2-0.1-0.2-0.1C4,7.6,3.9,7.5,3.8,7.5C3.5,7.4,3.3,7.4,3,7.4
	C2.5,7.3,2,7.2,1.5,7C1.2,6.9,1,6.7,0.8,6.5C0.6,6.3,0.4,6,0.2,5.7c0,0,0,0-0.1,0s0,0,0,0.1c0.1,0.3,0.3,0.7,0.5,1
	C0.9,7,1.2,7.2,1.4,7.4C1.7,7.6,2,7.7,2.3,7.8C2.5,7.9,2.8,8,3.1,8.1c0.1,0,0.2,0.1,0.3,0.1L2.9,7.8C4,8.1,4.5,9,4.5,9
	c0.1,0.1,0.1,0.3,0.2,0.4c0,0-0.1,0-0.1,0.1c0,0-0.1,0.1-0.1,0.1c0,0,0.1,0.1,0.1,0.2c0,0,0,0,0,0.1c0,0-0.1,0-0.1,0l-0.1,0
	c0,0-0.1,0-0.1,0c0,0-1-0.2-1.3-1.1l0.3,0.2c0-0.1-0.1-0.2-0.1-0.3C2.9,8.5,2.7,8.3,2.5,8.2c0.1,0.3,0.1,0.6,0.3,0.9
	c0.1,0.3,0.3,0.6,0.5,0.9c0.2,0.3,0.5,0.5,0.8,0.7c0.1,0,0.1,0.1,0.2,0.1l0.1,0.1c0,0,0.1,0,0.1,0c0.1,0,0.1,0,0.2,0.1
	c0,0,0,0.1,0,0.1c0,0,0,0.1,0,0.1c0,0,0,0.1,0.1,0.1s0.1,0.1,0.1,0.1c0,0,0,0.1,0,0.2c0,0,0,0.1,0.1,0.1c0,0,0,0.1,0,0.2
	c0,0,0.2,0,0.2,0c0,0,0,0.1,0,0.2c0,0,0.1,0.1,0.1,0.1s0,0.1,0.1,0.1c0,0,0,0.1,0.1,0.2c0,0,0.2-0.1,0.3,0c0,0,0.1,0.1,0.1,0.1
	s0.1,0.1,0.1,0.1c0,0,0,0.1,0.1,0.1s0.1,0,0.1,0c0,0,0.1,0.1,0.1,0.1s0.1,0,0.2,0c0,0,0,0.2,0.1,0.2c0,0,0.1,0,0.1,0
	c0,0,0.1,0,0.1,0c0,0,0.1,0.1,0.1,0.1c0,0,0.1,0,0.1,0s0.1-0.1,0.2-0.1c0,0,0.1,0.1,0.1,0.1c0,0,0.1-0.2,0.1-0.2s0.1,0.1,0.2,0.1
	c0,0,0.1-0.1,0.1-0.1s0.1,0,0.1,0c0,0,0.1,0,0.1,0c0,0,0.1,0,0.1,0c0,0,0.1,0,0.1-0.1s0.1,0.1,0.2,0S8.7,13,8.7,13
	c0,0,0.1-0.1,0.1-0.1s0.1,0,0.1-0.1c0,0,0.1,0,0.2,0c0,0,0.1,0,0.2,0c0,0,0-0.2,0-0.2c0,0,0.2,0,0.2,0c0,0,0-0.1,0-0.2
	c0,0,0.1,0,0.1-0.1c0,0,0-0.1,0.1-0.1c0,0,0.1,0,0.2-0.1c0,0,0-0.1,0-0.2c0,0,0-0.1,0-0.2c0,0,0.1-0.1,0.1-0.1s0.1-0.1,0.1-0.1
	c0,0-0.1-0.1-0.1-0.2c0,0,0.1-0.1,0.1-0.1c0,0,0-0.1,0-0.1c0,0,0-0.1,0-0.1c0.1,0,0.2-0.1,0.3-0.1c0.3-0.1,0.5-0.3,0.8-0.5
	c0.2-0.2,0.5-0.5,0.6-0.7c0.2-0.3,0.3-0.5,0.4-0.8c0.2-0.5,0.4-1,0.6-1.5C13,7.2,13.1,7,13.3,6.8s0.3-0.4,0.5-0.5
	C13.9,6.3,13.9,6.3,13.8,6.2C13.8,6.2,13.8,6.2,13.8,6.2z M8.8,10.2C8.8,10.2,8.9,10.2,8.8,10.2C8.9,10.3,8.8,10.3,8.8,10.2
	C8.8,10.3,8.8,10.3,8.8,10.2C8.8,10.2,8.8,10.2,8.8,10.2z M8.8,11.8c-0.4,0.1-1.5-0.3-1.5-0.3c-0.7-1.4,0.3-2.4,0.3-2.4
	s0.6,0.3,1.1,0.5c0,0,0,0,0,0c0,0.2-0.1,0.4-0.1,0.6c-0.1,0.6-0.2,1.1-0.2,1.1s0.5-0.5,0.7-1.1v0c0,0,0,0,0,0c0,0,0,0,0,0
	c-0.1,0-0.1-0.1-0.1-0.1C8.9,10,9,10,9,10c0,0,0,0,0.1,0c0-0.1,0-0.2,0-0.3c0,0,0,0-0.1,0c0,0,0,0,0,0c0.1,0,0.2,0,0.3,0
	c0.4,0,0.5-0.1,0.5-0.1C10.3,10.8,9.2,11.7,8.8,11.8z"/>
</svg>
