<?xml version="1.0" encoding="utf-8"?>
<!-- Generator: Adobe Illustrator 25.4.1, SVG Export Plug-In . SVG Version: 6.00 Build 0)  -->
<svg version="1.1" id="Layer_1" xmlns="http://www.w3.org/2000/svg" xmlns:xlink="http://www.w3.org/1999/xlink" x="0px" y="0px"
	 viewBox="0 0 68 57.5" style="enable-background:new 0 0 68 57.5;" xml:space="preserve">
<style type="text/css">
	.st0{fill:url(#SVGID_1_);}
	.st1{fill:#FFFFFF;}
	.st2{fill:#58595B;}
</style>
<radialGradient id="SVGID_1_" cx="-960.8507" cy="241.873" r="1" gradientTransform="matrix(5.4 15.6 -16.0931 5.5707 9117.2588 13679.5898)" gradientUnits="userSpaceOnUse">
	<stop  offset="0" style="stop-color:#18ADFA"/>
	<stop  offset="1" style="stop-color:#0B5C7E"/>
</radialGradient>
<path class="st0" d="M37.7,6.5L37.7,6.5c0-0.2,0.1-0.3,0.2-0.3c0.1,0,0.2,0,0.3,0.1c0.9,2,1.7,4.1,1.7,6.5c0,0.1,0,0.2,0,0.4
	c-0.6-0.4-1.3-0.8-1.9-1.1c0.1-0.8,0.2-1.6,0.1-2.4C38,8.6,37.9,7.5,37.7,6.5z M3.7,12L3.7,12c1.4,0,2.7,0.4,3.7,1.1l-0.2-0.8
	c2.2,1.5,3.9,5,4,5.2l0,0l0,0c1.1,1.7,2.1,3.6,3.5,5.4c0.9,1.2,2,2.4,3.5,3.3c0.1,0.1,0.2,0.1,0.3,0.2l0.3,0.2l0.6,0.3
	c0.4,0.2,0.9,0.3,1.3,0.5c0.4,0.1,0.8,0.2,1.2,0.3L21.6,27c-0.1-0.2-0.2-0.5-0.3-0.8c-0.1-0.3-0.2-0.5-0.2-0.8L21,24.6
	c0-0.3-0.1-0.5-0.1-0.8c0-0.4-0.1-0.9-0.1-1.3c-1.7,0-3.9-0.5-5.8-2.7h2.3c-1.9-1.3-3.6-3.4-5.7-5.3c-1.1-1-2.3-1.9-3.7-2.4
	C7.7,12,7.6,12,7.4,11.9l-0.5-0.1c-0.4-0.1-0.7-0.1-1.1-0.2c-0.2,0-0.4,0-0.5,0H4.8c-0.4,0-0.7,0.1-1.1,0.2
	C3.6,11.8,3.5,11.9,3.7,12C3.5,12,3.6,12,3.7,12z M66.2,22.7c-1,0.4-2,1.1-3,1.9c-1,0.8-1.9,1.8-2.7,2.9c-1.2,1.6-2.2,3.3-3.2,4.9
	l1.9-1.1c-2,5.7-7.9,7.6-8.1,7.7c-0.4,0.1-0.8,0.2-1.2,0.3c-0.2,0-0.3,0-0.5,0.1l0,0v-0.1c-0.1-0.2-0.5-0.4-0.6-0.6
	c0-0.1-0.1-0.2-0.1-0.2c1-0.8,2-1.6,2.9-2.6c0.6-0.6,1.2-1.3,1.8-2.1s1.1-1.6,1.5-2.5s0.7-1.9,0.8-3c0.1-1,0-2.1-0.2-3
	c-0.5-1.9-1.4-3.4-2.2-4.8c-0.7-1.1-1.4-2.2-2-3.3l0,0c-0.1-0.1-2.6-4.4-1.6-6.3l0.6,1.3c0.3-1.2,1-2.4,2-3.5c1-1.2,2.2-2.2,3.5-3.1
	l0,0c0.1-0.1,0.1-0.2,0.1-0.3c-0.1-0.1-0.2-0.2-0.3-0.1c-1.4,0.8-2.8,1.6-4,2.7C51,8.4,50.4,9,49.9,9.7s-1,1.5-1.2,2.3
	c-0.2,0.4-0.2,0.9-0.3,1.3c0,0.5-0.1,0.9,0,1.4c0,0.9,0.2,1.8,0.5,2.6c0.5,1.7,1.2,3.1,1.9,4.6c0.5,1.2,1,2.4,1.2,3.4c1.3-1,2-2,2-2
	c1,1.7-1.9,5.2-3.3,6.8l-0.1,0.1c-0.2,0.2-0.3,0.4-0.5,0.6C50,30.9,50,30.9,50,30.9l0,0c-0.4,0.4-0.8,0.7-1.3,1.1
	c-0.8,0.6-1.6,1.1-2.5,1.6l0,0c-0.2-0.1-0.4-0.2-0.5-0.3c-0.2-0.2-0.4-0.3-0.5-0.5c-0.2-0.2,0-0.7-0.2-0.9l0,0l0,0
	c0.1-0.5,0.2-1,0.3-1.5l0.2-1.1l0.1-0.5l0.1-0.5l0.1-1.1c0-0.4,0-0.7,0.1-1.1c0-0.2,0-0.4,0-0.6v-0.6c0-0.4,0-0.7-0.1-1.1
	c-0.1-1.5-0.5-3.1-1.3-4.5s-1.8-2.6-3-3.5c-1.8-1.4-3.7-2.3-5.4-3.2l0,0l0,0c-0.5-0.2-4.8-2.2-4.9-3.8L32,9.2c-0.6-1-1-2.1-1-3.3
	c0-0.1-0.1-0.2-0.2-0.2s-0.2,0.1-0.2,0.2l0,0c-0.2,1.3,0,2.7,0.5,4c0.3,0.7,0.7,1.2,1.1,1.8c0.4,0.5,0.9,1,1.4,1.5
	c1,0.9,2.1,1.7,3.1,2.5c0.9,0.7,1.8,1.5,2.5,2.2l-0.3-2.7c3.3,2.9,2.4,8.7,2.4,8.7c0,0.3-0.1,0.5-0.1,0.8l-0.6,0.5
	c0,0.1-0.1,0.3-0.1,0.4c-0.1,0.3-0.1,0.5-0.2,0.8L40,27.2l-0.1,0.4L39.7,28l-0.3,0.8c-0.1,0.3-0.3,0.6-0.4,1
	c-0.2-0.1-0.4-0.1-0.6-0.2c-0.2,0-0.3-1-0.6-1c-0.1,0-0.2,0.1-0.3,0.2c-0.3-0.6-0.5-1.2-0.7-1.7c0,0-3.1-5-1.6-7.1l1.4,2.5
	c0-0.1,0-0.2,0.1-0.2c0.3-0.8,0.7-1.7,1.2-2.7c-0.2-0.3-0.3-0.6-0.5-0.9c-0.5-0.7-1.1-1.5-1.8-1.9c-0.2,0.3-0.4,0.5-0.7,0.8
	c-0.7,0.8-1.4,1.7-2.1,2.8c-0.7,1.1-1.2,2.4-1.5,3.7C31,25.3,31,26.5,31,27.7c-0.8-0.5-1.4-1.1-1.9-1.7L29,25.8
	c0-0.1-0.1-0.1-0.1-0.2l-0.2-0.4c-0.1-0.1-0.1-0.3-0.2-0.4l-0.2-0.3c0,0-3.5-4.3-3.2-7.1l2.4,2.2c0-0.5,0-1,0-1.4
	c0-1.6,0-3.4-0.1-5.1c-0.2-1.8-0.5-3.6-1.3-5.2c-0.7-1.7-1.8-3.1-3.1-4.3c-1.3-1.2-2.7-2.1-4.1-3c-0.1-0.1-0.3,0-0.4,0.1
	s-0.1,0.3,0,0.4l0,0c1.2,1.1,2.4,2.2,3.3,3.5c0.5,0.7,1,1.5,1.3,2.3l0.7-0.8l0.3,4.7l0,0c0,0.8,0,1.6,0,2.4
	c-0.1,1.5-0.4,3.1-0.7,4.7c-0.3,1.6-0.6,3.4-0.6,5.3c0,0.5,0,1,0.1,1.5c0,0.3,0.1,0.5,0.1,0.8l0.1,0.8c0.1,0.3,0.1,0.5,0.2,0.8
	s0.1,0.5,0.3,0.8l0.3,0.7c0.1,0.1,0.1,0.2,0.2,0.4l0.2,0.3c0.7,1.2,1.5,2.3,2.5,3.3l0,0c-0.2,0-0.5-0.1-0.6,0c-0.2,0.2,0.1,0.8,0,1
	c-0.2,0.2-0.8-0.1-0.9,0.1l-0.1,0.1c-0.3-0.4-0.6-0.7-0.9-1.1l-0.7-0.8c-0.2-0.2-0.4-0.4-0.6-0.5c-0.8-0.7-1.6-1.2-2.4-1.6
	c-0.4-0.2-0.8-0.4-1.1-0.5c-0.4-0.1-0.7-0.3-1.1-0.4c-1.4-0.4-2.7-0.7-4-0.8c-2.5-0.4-4.9-0.6-7.2-1.7C6,25.9,4.9,25.1,3.8,24
	s-2-2.4-2.8-3.9l0,0c-0.1-0.1-0.2-0.2-0.3-0.2c-0.1,0-0.1,0.1-0.1,0.3c0.7,1.6,1.5,3.2,2.6,4.6s2.4,2.6,3.7,3.5s2.7,1.6,4,2.1
	s2.6,1,3.9,1.4c0.4,0.2,0.8,0.3,1.2,0.5l-2.3-2.2c5.6,1.7,7.9,5.9,8,6.1l0,0l0,0c0.4,0.6,0.7,1.2,0.9,2c-0.2,0.1-0.3,0.2-0.3,0.3
	c-0.1,0.2-0.5,0.4-0.5,0.6c-0.1,0.2,0.5,0.6,0.5,0.9c0,0.1-0.1,0.2-0.2,0.3l0,0c-0.1,0-0.3,0-0.4-0.1l-0.4-0.1
	c-0.2-0.1-0.5-0.1-0.7-0.2c0,0-4.6-0.9-6.4-5.5l1.5,0.9c-0.2-0.4-0.4-0.9-0.6-1.3c-1-0.5-2-1.2-3-1.7c0.3,1.5,0.7,3,1.2,4.5
	c0.6,1.5,1.4,3.1,2.5,4.5s2.4,2.4,3.7,3.2c0.3,0.2,0.7,0.4,1,0.5l0.5,0.3c0.2,0.1,0.3,0.1,0.5,0.2c0.3,0.1,0.6,0.2,0.8,0.3
	c0,0.2,0,0.4,0,0.6c0.1,0.2,0.1,0.5,0.2,0.7s0.2,0.4,0.3,0.6c0.1,0.2,0.3,0.4,0.4,0.6c0.1,0.2-0.1,0.6,0,0.8s0.2,0.5,0.3,0.7
	c0.1,0.2-0.1,0.6,0,0.8s1-0.1,1.1,0.1c0.1,0.2,0,0.6,0.2,0.8s0.3,0.3,0.5,0.5s0.2,0.5,0.4,0.6c0.2,0.2,0.1,0.6,0.3,0.8
	c0.2,0.2,1-0.4,1.2-0.2s0.4,0.3,0.6,0.4c0.2,0.1,0.4,0.3,0.6,0.4c0.2,0.1,0.2,0.5,0.4,0.6c0.2,0.1,0.5,0,0.7,0.1s0.3,0.5,0.5,0.6
	s0.6-0.2,0.8-0.1c0.2,0.1,0.2,0.9,0.4,1c0.2,0.1,0.5,0,0.7,0.1s0.5,0,0.7,0.1c0.2,0,0.4,0.3,0.7,0.3c0.2,0,0.5,0.1,0.7,0.1
	s0.5-0.4,0.8-0.4c0.2,0,0.5,0.6,0.7,0.6s0.5-0.9,0.7-0.9s0.5,0.6,0.8,0.6c0.2,0,0.4-0.7,0.6-0.7c0.2,0,0.5-0.1,0.7-0.1
	s0.5,0,0.7-0.1s0.4-0.1,0.7-0.2c0.2-0.1,0.4-0.2,0.6-0.3c0.2-0.1,0.6,0.3,0.8,0.2s0.4-0.3,0.6-0.5c0.2-0.1,0.3-0.5,0.5-0.6
	s0.4-0.2,0.6-0.4c0.2-0.1,0.7,0.1,0.9,0s0.6,0,0.8-0.2s-0.1-0.8,0.1-1c0.2-0.2,0.8,0.1,1,0c0.2-0.2,0-0.7,0.2-0.8
	c0.2-0.2,0.6-0.1,0.7-0.3c0.2-0.2,0.1-0.5,0.3-0.7c0.1-0.2,0.7-0.1,0.8-0.3s-0.1-0.6,0.1-0.8c0.1-0.2,0-0.5,0.1-0.8
	c0.1-0.2,0.5-0.3,0.6-0.5s0.4-0.4,0.5-0.6c0.1-0.2-0.4-0.7-0.4-0.9c0.1-0.2,0.3-0.4,0.3-0.6c0.1-0.2,0-0.5,0.1-0.7
	c0-0.2,0-0.3,0-0.5c0.4-0.1,0.8-0.3,1.2-0.4c1.2-0.5,2.5-1.3,3.6-2.2c1.1-1,2.2-2.2,3-3.4c0.8-1.3,1.4-2.5,2-3.7
	c1.1-2.5,1.9-4.8,3.1-7c0.6-1.1,1.2-2.1,2-3c0.8-0.9,1.6-1.7,2.6-2.4c0.1,0,0.1-0.1,0.1-0.2C66.3,22.7,66.3,22.7,66.2,22.7z
	 M13.4,26.2c0-0.1,0-0.1-0.1-0.2c-0.2-0.4-0.3-0.8-0.6-1.2c-0.2-0.4-0.4-0.8-0.7-1.1c-0.5-0.7-1.1-1.2-1.7-1.7
	c-0.6-0.4-1.2-0.8-1.9-1c-0.4-0.2-0.5,0.1-0.1,0.5c1.7,1.2,2.5,3,2.5,3l-0.1-1.4c0.6,0.6,0.9,1.7,1.1,2.9
	C12.4,26.1,12.9,26.2,13.4,26.2z M57.2,25.9c0.1-0.2,0.9-2.3,2.7-3.6l-0.7,1.6c0,0,0.1,0,0.1-0.1c0.6-0.5,1.2-0.9,1.8-1.4
	s1.3-1,1.8-1.7c0.6-0.6,1.1-1.4,1.4-2.2c0.3-0.8,0.4-1.6,0.3-2.3c0-0.1-0.1-0.2-0.2-0.2c-0.1,0-0.2,0.1-0.2,0.2l0,0
	c-0.1,0.7-0.3,1.4-0.7,2c-0.3,0.6-0.8,1.1-1.4,1.5c-1.1,0.9-2.4,1.4-3.8,2.2c-0.7,0.4-1.4,0.8-2,1.3c0.3,0.7,0.6,1.4,0.8,2.2
	C57.2,25.6,57.2,25.7,57.2,25.9z"/>
<path class="st1" d="M42,49.2c-1.8,0.4-7-1.4-7-1.4c-3.2-6.7,1.6-11.5,1.6-11.5s2.7,1.6,5.1,2.5c0.2,0.3,0.4,0.8,0.7,0.9
	c0.3,0.1,0.9-0.4,0.9-0.4c0.5,0.1,0.9,0.2,1.2,0.2c1.9-0.2,2.5-0.7,2.5-0.7C49.2,44.8,43.9,48.8,42,49.2z"/>
<path class="st2" d="M43.5,40.9c0,0.3,0,0.6-0.1,1l0,0V42c-0.6,2.9-3.2,5.2-3.2,5.2s0.3-2.3,0.9-5.2c0.2-1.2,0.5-2.3,0.7-3.1
	c0.6,0.2,1.1,0.4,1.6,0.6C43.4,39.8,43.5,40.3,43.5,40.9z"/>
<path class="st1" d="M43.2,41.9c0.3,0,0.6-0.2,0.6-0.6c0-0.3-0.2-0.6-0.6-0.6c-0.3,0-0.6,0.2-0.6,0.6C42.6,41.6,42.9,41.9,43.2,41.9
	z"/>
<path class="st1" d="M42.3,42.1c0.1,0,0.2-0.1,0.2-0.2s-0.1-0.2-0.2-0.2s-0.2,0.1-0.2,0.2S42.2,42.1,42.3,42.1z"/>
</svg>
